<?xml version="1.0" encoding="utf-8"?>
<!-- Generator: Adobe Illustrator 24.0.1, SVG Export Plug-In . SVG Version: 6.00 Build 0)  -->
<svg version="1.1" id="Layer_1" xmlns="http://www.w3.org/2000/svg" xmlns:xlink="http://www.w3.org/1999/xlink" x="0px" y="0px"
	 viewBox="0 0 75.8 71.2" style="enable-background:new 0 0 75.8 71.2;" xml:space="preserve">
<style type="text/css">
	.st0{fill:#F9F9F9;}
</style>
<g>
	<g>
		<g>
			<g>
				<path class="st0" d="M64.3,1.5L18.7,5.3c-1-0.1-3.5,1.9-3.6,2.9l-1.4,10.1h37.5v8.8H12.5l-2.4,23.7c-0.1,1,1.9,3.5,2.9,3.6
					l5.1,1.3v-4.4c-0.2-5.2,2.3-15.5,13-17.2h0.4h18.9V43H32.2c-2.3,0.4-3.6,1.6-4.4,3.8c-0.8,2.1-0.8,4.3-0.8,4.3v0.1v0.1v6.8
					l31.4,6.9c3.8,0.8,6.3-2.6,6.4-3.7l4.2-53.8C69.4,3.7,65.2,1.6,64.3,1.5z"/>
			</g>
		</g>
	</g>
</g>
</svg>
